<?xml version="1.0" encoding="UTF-8" standalone="no"?>
<svg
   xmlns:dc="http://purl.org/dc/elements/1.1/"
   xmlns:cc="http://creativecommons.org/ns#"
   xmlns:rdf="http://www.w3.org/1999/02/22-rdf-syntax-ns#"
   xmlns:svg="http://www.w3.org/2000/svg"
   xmlns="http://www.w3.org/2000/svg"
   viewBox="0 0 480 480"
   height="480"
   width="480"
   xml:space="preserve"
   id="svg2"
   version="1.1"><metadata
     id="metadata8"><rdf:RDF><cc:Work
         rdf:about=""><dc:format>image/svg+xml</dc:format><dc:type
           rdf:resource="http://purl.org/dc/dcmitype/StillImage" /></cc:Work></rdf:RDF></metadata><defs
     id="defs6"><clipPath
       id="clipPath102"
       clipPathUnits="userSpaceOnUse"><path
         id="path100"
         d="M 45,45 H 324 V 316.8 H 45 Z" /></clipPath><clipPath
       id="clipPath112"
       clipPathUnits="userSpaceOnUse"><path
         id="path110"
         d="M 45,45 H 324 V 316.8 H 45 Z" /></clipPath><clipPath
       id="clipPath122"
       clipPathUnits="userSpaceOnUse"><path
         id="path120"
         d="M 45,45 H 324 V 316.8 H 45 Z" /></clipPath></defs><g
     transform="matrix(1.3333333,0,0,-1.3333333,0,480)"
     id="g10"><path
       id="path12"
       style="fill:#ffffff;fill-opacity:1;fill-rule:nonzero;stroke:none"
       d="M 0,0 H 360 V 360 H 0 Z" /><path
       id="path14"
       style="fill:#ffffff;fill-opacity:1;fill-rule:nonzero;stroke:none"
       d="M 45,45 H 324 V 316.8 H 45 Z" /><path
       id="path16"
       style="fill:#000000;fill-opacity:1;fill-rule:nonzero;stroke:#000000;stroke-width:0.80000001;stroke-linecap:butt;stroke-linejoin:round;stroke-miterlimit:10;stroke-dasharray:none;stroke-opacity:1"
       d="M 45,45 V 41.5" /><text
       id="text20"
       style="font-variant:normal;font-weight:normal;font-size:10px;font-family:'DejaVu Sans';-inkscape-font-specification:DejaVuSans;writing-mode:lr-tb;fill:#000000;fill-opacity:1;fill-rule:nonzero;stroke:none"
       transform="matrix(1,0,0,-1,37.046875,30.40625)"><tspan
         id="tspan18"
         y="0"
         x="0 6.3600001 9.54">0.0</tspan></text>
<path
       id="path22"
       style="fill:#000000;fill-opacity:1;fill-rule:nonzero;stroke:#000000;stroke-width:0.80000001;stroke-linecap:butt;stroke-linejoin:round;stroke-miterlimit:10;stroke-dasharray:none;stroke-opacity:1"
       d="M 100.8,45 V 41.5" /><text
       id="text26"
       style="font-variant:normal;font-weight:normal;font-size:10px;font-family:'DejaVu Sans';-inkscape-font-specification:DejaVuSans;writing-mode:lr-tb;fill:#000000;fill-opacity:1;fill-rule:nonzero;stroke:none"
       transform="matrix(1,0,0,-1,92.846875,30.40625)"><tspan
         id="tspan24"
         y="0"
         x="0 6.3600001 9.54">0.2</tspan></text>
<path
       id="path28"
       style="fill:#000000;fill-opacity:1;fill-rule:nonzero;stroke:#000000;stroke-width:0.80000001;stroke-linecap:butt;stroke-linejoin:round;stroke-miterlimit:10;stroke-dasharray:none;stroke-opacity:1"
       d="M 156.6,45 V 41.5" /><text
       id="text32"
       style="font-variant:normal;font-weight:normal;font-size:10px;font-family:'DejaVu Sans';-inkscape-font-specification:DejaVuSans;writing-mode:lr-tb;fill:#000000;fill-opacity:1;fill-rule:nonzero;stroke:none"
       transform="matrix(1,0,0,-1,148.64687,30.40625)"><tspan
         id="tspan30"
         y="0"
         x="0 6.3600001 9.54">0.4</tspan></text>
<path
       id="path34"
       style="fill:#000000;fill-opacity:1;fill-rule:nonzero;stroke:#000000;stroke-width:0.80000001;stroke-linecap:butt;stroke-linejoin:round;stroke-miterlimit:10;stroke-dasharray:none;stroke-opacity:1"
       d="M 212.4,45 V 41.5" /><text
       id="text38"
       style="font-variant:normal;font-weight:normal;font-size:10px;font-family:'DejaVu Sans';-inkscape-font-specification:DejaVuSans;writing-mode:lr-tb;fill:#000000;fill-opacity:1;fill-rule:nonzero;stroke:none"
       transform="matrix(1,0,0,-1,204.44687,30.40625)"><tspan
         id="tspan36"
         y="0"
         x="0 6.3600001 9.54">0.6</tspan></text>
<path
       id="path40"
       style="fill:#000000;fill-opacity:1;fill-rule:nonzero;stroke:#000000;stroke-width:0.80000001;stroke-linecap:butt;stroke-linejoin:round;stroke-miterlimit:10;stroke-dasharray:none;stroke-opacity:1"
       d="M 268.2,45 V 41.5" /><text
       id="text44"
       style="font-variant:normal;font-weight:normal;font-size:10px;font-family:'DejaVu Sans';-inkscape-font-specification:DejaVuSans;writing-mode:lr-tb;fill:#000000;fill-opacity:1;fill-rule:nonzero;stroke:none"
       transform="matrix(1,0,0,-1,260.24687,30.40625)"><tspan
         id="tspan42"
         y="0"
         x="0 6.3600001 9.54">0.8</tspan></text>
<path
       id="path46"
       style="fill:#000000;fill-opacity:1;fill-rule:nonzero;stroke:#000000;stroke-width:0.80000001;stroke-linecap:butt;stroke-linejoin:round;stroke-miterlimit:10;stroke-dasharray:none;stroke-opacity:1"
       d="M 324,45 V 41.5" /><text
       id="text50"
       style="font-variant:normal;font-weight:normal;font-size:10px;font-family:'DejaVu Sans';-inkscape-font-specification:DejaVuSans;writing-mode:lr-tb;fill:#000000;fill-opacity:1;fill-rule:nonzero;stroke:none"
       transform="matrix(1,0,0,-1,316.04687,30.40625)"><tspan
         id="tspan48"
         y="0"
         x="0 6.3600001 9.54">1.0</tspan></text>
<text
       id="text54"
       style="font-variant:normal;font-weight:normal;font-size:10px;font-family:'DejaVu Sans';-inkscape-font-specification:DejaVuSans;writing-mode:lr-tb;fill:#000000;fill-opacity:1;fill-rule:nonzero;stroke:none"
       transform="matrix(1,0,0,-1,137.25,16.734375)"><tspan
         id="tspan52"
         y="0"
         x="0 5.75 11.88 14.66 19.870001 26.02 29.200001 35.23 41.349998 46.560001 49.34 53.259998 56.040001 61.959999 68.110001 71.290001 78.239998 84.370003 88.290001">False Positive Rate</tspan></text>
<path
       id="path56"
       style="fill:#000000;fill-opacity:1;fill-rule:nonzero;stroke:#000000;stroke-width:0.80000001;stroke-linecap:butt;stroke-linejoin:round;stroke-miterlimit:10;stroke-dasharray:none;stroke-opacity:1"
       d="M 45,45 H 41.5" /><text
       id="text60"
       style="font-variant:normal;font-weight:normal;font-size:10px;font-family:'DejaVu Sans';-inkscape-font-specification:DejaVuSans;writing-mode:lr-tb;fill:#000000;fill-opacity:1;fill-rule:nonzero;stroke:none"
       transform="matrix(1,0,0,-1,22.09375,41.203125)"><tspan
         id="tspan58"
         y="0"
         x="0 6.3600001 9.54">0.0</tspan></text>
<path
       id="path62"
       style="fill:#000000;fill-opacity:1;fill-rule:nonzero;stroke:#000000;stroke-width:0.80000001;stroke-linecap:butt;stroke-linejoin:round;stroke-miterlimit:10;stroke-dasharray:none;stroke-opacity:1"
       d="M 45,99.36 H 41.5" /><text
       id="text66"
       style="font-variant:normal;font-weight:normal;font-size:10px;font-family:'DejaVu Sans';-inkscape-font-specification:DejaVuSans;writing-mode:lr-tb;fill:#000000;fill-opacity:1;fill-rule:nonzero;stroke:none"
       transform="matrix(1,0,0,-1,22.09375,95.563125)"><tspan
         id="tspan64"
         y="0"
         x="0 6.3600001 9.54">0.2</tspan></text>
<path
       id="path68"
       style="fill:#000000;fill-opacity:1;fill-rule:nonzero;stroke:#000000;stroke-width:0.80000001;stroke-linecap:butt;stroke-linejoin:round;stroke-miterlimit:10;stroke-dasharray:none;stroke-opacity:1"
       d="M 45,153.72 H 41.5" /><text
       id="text72"
       style="font-variant:normal;font-weight:normal;font-size:10px;font-family:'DejaVu Sans';-inkscape-font-specification:DejaVuSans;writing-mode:lr-tb;fill:#000000;fill-opacity:1;fill-rule:nonzero;stroke:none"
       transform="matrix(1,0,0,-1,22.09375,149.92312)"><tspan
         id="tspan70"
         y="0"
         x="0 6.3600001 9.54">0.4</tspan></text>
<path
       id="path74"
       style="fill:#000000;fill-opacity:1;fill-rule:nonzero;stroke:#000000;stroke-width:0.80000001;stroke-linecap:butt;stroke-linejoin:round;stroke-miterlimit:10;stroke-dasharray:none;stroke-opacity:1"
       d="M 45,208.08 H 41.5" /><text
       id="text78"
       style="font-variant:normal;font-weight:normal;font-size:10px;font-family:'DejaVu Sans';-inkscape-font-specification:DejaVuSans;writing-mode:lr-tb;fill:#000000;fill-opacity:1;fill-rule:nonzero;stroke:none"
       transform="matrix(1,0,0,-1,22.09375,204.28312)"><tspan
         id="tspan76"
         y="0"
         x="0 6.3600001 9.54">0.6</tspan></text>
<path
       id="path80"
       style="fill:#000000;fill-opacity:1;fill-rule:nonzero;stroke:#000000;stroke-width:0.80000001;stroke-linecap:butt;stroke-linejoin:round;stroke-miterlimit:10;stroke-dasharray:none;stroke-opacity:1"
       d="M 45,262.44 H 41.5" /><text
       id="text84"
       style="font-variant:normal;font-weight:normal;font-size:10px;font-family:'DejaVu Sans';-inkscape-font-specification:DejaVuSans;writing-mode:lr-tb;fill:#000000;fill-opacity:1;fill-rule:nonzero;stroke:none"
       transform="matrix(1,0,0,-1,22.09375,258.64312)"><tspan
         id="tspan82"
         y="0"
         x="0 6.3600001 9.54">0.8</tspan></text>
<path
       id="path86"
       style="fill:#000000;fill-opacity:1;fill-rule:nonzero;stroke:#000000;stroke-width:0.80000001;stroke-linecap:butt;stroke-linejoin:round;stroke-miterlimit:10;stroke-dasharray:none;stroke-opacity:1"
       d="M 45,316.8 H 41.5" /><text
       id="text90"
       style="font-variant:normal;font-weight:normal;font-size:10px;font-family:'DejaVu Sans';-inkscape-font-specification:DejaVuSans;writing-mode:lr-tb;fill:#000000;fill-opacity:1;fill-rule:nonzero;stroke:none"
       transform="matrix(1,0,0,-1,22.09375,313.00312)"><tspan
         id="tspan88"
         y="0"
         x="0 6.3600001 9.54">1.0</tspan></text>
<text
       id="text94"
       style="font-variant:normal;font-weight:normal;font-size:10px;font-family:'DejaVu Sans';-inkscape-font-specification:DejaVuSans;writing-mode:lr-tb;fill:#000000;fill-opacity:1;fill-rule:nonzero;stroke:none"
       transform="matrix(0,1,1,0,16.015625,135.31406)"><tspan
         id="tspan92"
         y="0"
         x="0 6.1100001 10.22 16.559999 22.709999 25.889999 31.92 38.040001 43.25 46.029999 49.950001 52.73 58.650002 64.800003 67.980003 74.93 81.059998 84.980003">True Positive Rate</tspan></text>
<g
       id="g96"><g
         clip-path="url(#clipPath102)"
         id="g98"><path
           id="path104"
           style="fill:none;stroke:#1f77b4;stroke-width:1.5;stroke-linecap:square;stroke-linejoin:round;stroke-miterlimit:10;stroke-dasharray:none;stroke-opacity:1"
           d="m 45,45 0.0037,0.105026 0.111025,2.141543 0.0073,0.110463 0.111025,1.572425 0.0085,0.10898 v 9.88e-4 l 0.111025,1.329754 0.01121,0.110462 0.111025,1.305783 0.0099,0.11071 0.111025,1.153309 0.01014,0.109228 v 0.0017 l 0.111024,1.120937 0.01288,0.110216 0.111025,1.02629 0.01288,0.110462 0.111025,0.962039 0.01157,0.108733 0.110905,0.889138 0.01395,0.110463 0.111025,0.876288 0.01371,0.110462 0.110906,0.901 0.01515,0.110216 0.111025,0.839714 0.01574,0.110216 0.111025,0.819944 0.0167,0.110463 0.111025,0.790537 0.01598,0.107744 v 0.0032 l 0.111025,0.768296 0.01586,0.109475 v 9.88e-4 l 0.111024,0.741113 0.01848,0.108239 v 0.0015 l 0.111025,0.733699 0.0155,0.109969 0.111025,0.699597 0.01634,0.110957 0.111025,0.719119 0.0167,0.11071 0.111025,0.666236 0.02242,0.110215 0.111025,0.667719 0.01801,0.108239 0.111025,0.63065 0.01634,0.110957 0.111025,0.654374 0.02242,0.110216 0.111025,0.619036 0.02123,0.110956 0.111025,0.639547 0.02111,0.11071 0.111025,0.614341 0.02051,0.110462 0.111025,0.589135 0.02194,0.11071 0.111025,0.566399 0.02063,0.11071 0.111025,0.574307 0.02421,0.109227 v 4.94e-4 l 0.111025,0.579003 0.01872,0.110709 0.111025,0.56121 0.02111,0.11071 0.110905,0.513516 0.01896,0.110215 0.111025,0.522412 0.02123,0.110957 0.111025,0.543417 0.0217,0.110957 0.111025,0.521176 0.02278,0.110957 0.111025,0.547124 0.02206,0.110216 0.111025,0.527107 0.02552,0.10898 v 7.41e-4 l 0.111025,0.523154 0.0223,0.110709 0.110905,0.502149 0.02469,0.109474 v 9.88e-4 l 0.111025,0.513516 0.02218,0.110215 0.111025,0.515246 0.02898,0.109968 0.111024,0.48485 0.02516,0.109968 0.111025,0.497206 0.02791,0.110216 0.111025,0.49597 0.02814,0.109968 0.111025,0.451983 0.02814,0.110463 0.111025,0.499676 0.02814,0.109722 0.111025,0.475459 0.02755,0.110957 0.111025,0.457666 0.02624,0.11071 v 2.47e-4 l 0.111025,0.472741 0.02755,0.110463 0.110906,0.451241 0.02814,0.110463 0.110786,0.413926 0.03339,0.11071 0.111025,0.45643 0.02683,0.110957 0.110906,0.430978 0.03041,0.110463 0.111024,0.468539 0.0223,0.11071 0.110786,0.44704 0.02719,0.110957 0.111025,0.456184 0.03005,0.109227 v 0.0015 l 0.111025,0.407748 0.02838,0.109969 v 9.88e-4 l 0.110787,0.426529 0.02862,0.109969 0.111024,0.423069 0.02731,0.110463 0.111024,0.410961 0.03113,0.110463 v 2.47e-4 l 0.110905,0.408736 0.03303,0.110957 0.111024,0.440863 0.02874,0.110956 0.110905,0.392674 0.03172,0.110957 0.111025,0.382542 0.03196,0.110957 0.111025,0.387732 0.02981,0.110215 v 4.94e-4 l 0.111025,0.383778 0.03017,0.109721 0.111025,0.393663 0.03315,0.110709 0.110906,0.387979 0.03148,0.110957 0.111025,0.407501 0.02946,0.11071 0.111025,0.344732 0.03375,0.11071 0.111025,0.365244 0.03291,0.110957 0.111025,0.393662 0.03518,0.110463 v 4.94e-4 l 0.110906,0.378835 0.0291,0.110216 v 7.41e-4 l 0.110787,0.378341 0.03101,0.11071 0.110906,0.399099 h 1.19e-4 l 0.197126,0.663518 0.111025,0.35758 0.208812,0.68749 0.111025,0.37266 0.0378,0.10996 v 9.9e-4 l 0.110905,0.36253 0.03733,0.10972 v 7.4e-4 l 0.110667,0.35462 0.03494,0.11095 0.110906,0.34227 0.03554,0.11095 0.110787,0.34696 0.03578,0.11096 0.110906,0.34275 0.03506,0.11096 0.111025,0.35338 0.03661,0.11096 0.111025,0.35486 0.03923,0.10701 v 0.004 l 0.111025,0.35733 0.039,0.11022 0.111025,0.32768 0.03303,0.11096 0.110906,0.35906 0.03399,0.11096 0.111025,0.33015 0.03256,0.11096 0.111025,0.3351 0.03339,0.10972 0.111025,0.35066 0.03554,0.11071 0.111025,0.3262 0.0378,0.11095 0.111025,0.34325 0.0353,0.11022 0.111025,0.30075 0.03757,0.11071 0.111025,0.33311 0.03625,0.10923 0.111025,0.32669 0.03828,0.11096 0.111025,0.32126 0.03947,0.11095 0.110906,0.32027 h 1.19e-4 l 0.283346,0.84268 0.110906,0.31459 0.03733,0.11021 v 7.4e-4 l 0.111025,0.30693 0.302188,0.88122 0.110906,0.32522 0.04245,0.11095 0.111025,0.32793 0.04233,0.11071 0.110787,0.30618 0.04305,0.11096 0.111025,0.3215 0.03661,0.11047 0.111025,0.30741 0.04317,0.11047 0.111025,0.28987 0.356329,0.99367 0.110906,0.30568 0.04329,0.11096 0.497764,1.28676 0.111025,0.29827 0.520064,1.33222 0.110906,0.28098 h 1.19e-4 l 0.423827,1.13255 0.110905,0.28641 0.04424,0.11071 0.111025,0.29383 0.04198,0.11046 0.111025,0.28147 0.671278,1.64607 0.111025,0.28888 0.04234,0.11096 0.111025,0.28147 0.04472,0.11096 0.110548,0.27356 0.04603,0.11071 0.111025,0.25997 0.04543,0.11071 0.110906,0.28097 0.03995,0.11096 0.111025,0.28394 0.04603,0.10997 0.110905,0.27159 0.04568,0.11095 0.110905,0.27653 0.04699,0.11096 0.110667,0.25577 0.05009,0.10996 0.110905,0.27455 0.05044,0.11071 0.111025,0.26912 0.04865,0.11021 0.111025,0.2748 0.04877,0.11096 0.110905,0.26269 0.04281,0.11095 0.110906,0.25157 0.04567,0.11096 0.110906,0.25527 0.04854,0.11096 0.111025,0.26689 0.04567,0.11096 0.111025,0.27208 0.04424,0.11095 0.111025,0.24564 0.05033,0.11071 0.110906,0.25404 0.05104,0.11071 0.11019,0.26269 h 7.16e-4 l 0.04889,0.11096 0.111025,0.24118 0.05176,0.11096 0.110905,0.24465 0.04746,0.11096 0.111025,0.24736 0.04603,0.11071 0.111025,0.21772 0.04961,0.11071 0.111025,0.25206 0.05629,0.11096 0.110786,0.26639 h 2.39e-4 l 0.05116,0.11096 0.110905,0.26096 0.05009,0.11095 0.110786,0.24614 0.04973,0.11071 0.110309,0.25502 h 2.39e-4 l 0.04651,0.11071 0.110905,0.24095 h 1.2e-4 l 0.05569,0.11071 0.111025,0.25725 0.05319,0.11095 0.110906,0.23675 0.04854,0.11095 0.111025,0.24737 0.05128,0.11096 0.110906,0.23155 0.04949,0.11096 0.153837,0.31804 0.110548,0.2402 h 3.57e-4 l 0.05152,0.10972 0.111025,0.2318 5.920576,12.01325 0.0539,0.11096 0.111025,0.21796 0.06165,0.11071 0.111025,0.1967 0.06881,0.11047 0.111025,0.20288 0.05521,0.11096 0.110906,0.19547 0.05784,0.11046 0.110906,0.20882 0.05414,0.11046 v 2.5e-4 l 0.111025,0.22093 0.0545,0.11021 0.110548,0.18682 0.05665,0.11096 0.111025,0.21376 0.05772,0.11096 0.110309,0.19918 0.05414,0.11071 0.110905,0.20585 0.06154,0.11095 0.110786,0.20289 0.06177,0.11096 0.110905,0.21277 0.05402,0.11095 0.110667,0.19943 0.06201,0.10972 0.111025,0.21549 0.05951,0.11096 0.111025,0.20857 0.05784,0.11095 0.111025,0.20511 0.06309,0.11046 0.110786,0.19449 h 2.39e-4 l 0.06165,0.11096 0.110905,0.21771 0.05736,0.11096 0.111025,0.21721 0.05963,0.11096 0.111025,0.20363 0.06213,0.11095 0.199034,0.3519 0.06344,0.11096 0.110905,0.19152 0.057,0.11046 0.110428,0.19696 0.05975,0.11021 v 7.4e-4 l 0.843241,1.49211 0.06022,0.10973 0.111025,0.19596 0.0731,0.11096 0.110905,0.21203 0.0774,0.11095 0.110548,0.18263 0.06785,0.11095 0.110787,0.18633 h 2.38e-4 l 0.817959,1.43997 0.06762,0.11071 0.11031,0.20116 0.06034,0.11021 0.110786,0.2103 0.06821,0.11096 0.111025,0.17422 0.06976,0.11095 0.110787,0.20338 0.06654,0.11096 0.110787,0.1846 0.06273,0.11022 v 7.4e-4 l 0.636217,1.06311 0.06356,0.11046 0.110906,0.19251 0.05987,0.11095 0.110906,0.18979 0.07179,0.11096 0.111025,0.19967 0.05963,0.11071 0.110906,0.19226 0.07251,0.11096 0.111025,0.17545 0.06368,0.11071 0.110787,0.19152 0.06988,0.11046 0.110548,0.18065 h 3.58e-4 l 0.06678,0.11071 0.110786,0.16755 0.07596,0.11046 0.110071,0.18188 0.06082,0.11096 0.111025,0.17693 0.06416,0.11096 0.111025,0.17472 0.06905,0.11071 0.110787,0.17718 0.0731,0.11096 0.110906,0.18781 0.07453,0.11096 0.110906,0.16655 0.0805,0.11047 0.110428,0.18731 0.08491,0.11022 0.111025,0.18262 0.07227,0.10972 v 9.9e-4 l 0.110906,0.18312 0.07215,0.11095 0.111024,0.17694 0.07775,0.11096 0.111025,0.18756 0.06511,0.11096 0.111025,0.18756 0.06583,0.11096 0.110429,0.16508 0.07692,0.11071 0.110906,0.17916 0.06869,0.10997 v 4.9e-4 l 0.111025,0.17472 0.46962,0.71887 0.07501,0.11071 0.110906,0.17224 0.07251,0.11046 0.111025,0.17645 0.07251,0.11071 v 2.4e-4 l 0.419057,0.61311 0.06559,0.11046 0.111025,0.16211 0.06654,0.11071 0.110906,0.17373 0.07298,0.11046 0.111025,0.17496 0.07394,0.11096 0.110906,0.15371 0.07203,0.11071 0.111025,0.16754 0.146086,0.21179 0.07859,0.11095 0.111025,0.17941 0.07215,0.11096 0.110906,0.16878 0.07561,0.11071 0.111025,0.172 0.441119,0.65981 0.07632,0.11021 0.11019,0.14877 0.07561,0.11096 0.110906,0.14901 0.07859,0.11096 0.110786,0.17743 0.07811,0.11071 v 2.5e-4 l 0.397233,0.56862 0.07382,0.11096 0.111025,0.17521 0.08085,0.11095 0.111025,0.15767 0.07859,0.11071 0.111025,0.15865 0.07227,0.11095 0.110667,0.15198 0.08312,0.11071 0.110668,0.15939 0.07274,0.11071 0.111025,0.14951 0.08061,0.11096 0.110787,0.15272 0.07358,0.11046 0.111025,0.15569 0.07453,0.11095 0.110905,0.15544 0.08539,0.11096 0.110667,0.16409 0.08288,0.11095 0.110906,0.1678 0.07906,0.11071 0.110786,0.14407 0.07919,0.11022 v 4.9e-4 l 0.110905,0.15791 0.07871,0.11096 0.111025,0.16656 0.08002,0.11095 0.351917,0.47497 0.08228,0.11095 0.09898,0.14259 h 0.0012 l 5.868463,7.96394 0.0901,0.11071 0.11103,0.13888 0.0826,0.11096 0.32389,0.4159 0.0847,0.11047 0.11103,0.15914 0.0897,0.11096 0.11102,0.13517 0.0878,0.11071 0.11079,0.13617 h 2.4e-4 l 0.0918,0.11095 0.11091,0.13518 0.0919,0.11095 0.11103,0.15569 0.084,0.11071 v 2.5e-4 l 0.32282,0.41442 0.0878,0.11071 v 2.4e-4 l 0.32688,0.42184 0.0893,0.11096 0.11078,0.14777 0.0871,0.11047 0.11031,0.13542 h 7.1e-4 l 0.0958,0.11046 v 5e-4 l 0.30434,0.37611 0.10077,0.11071 0.11007,0.12776 h 2.4e-4 l 0.0984,0.11096 0.11103,0.13542 0.0808,0.11071 0.16481,0.2103 0.0906,0.11096 0.11055,0.13641 h 3.6e-4 l 0.0905,0.11095 0.1109,0.12678 0.0877,0.11095 0.11102,0.13271 0.0892,0.11046 v 2.5e-4 l 0.11019,0.14926 h 8.4e-4 l 0.0891,0.11071 v 2.5e-4 l 0.16397,0.20609 0.093,0.11096 0.2558,0.31137 0.11043,0.15247 0.10375,0.11096 0.11091,0.12776 0.0927,0.11096 0.28859,0.34276 0.0942,0.11071 0.11007,0.14085 0.0859,0.11022 0.11067,0.12084 0.0897,0.11096 0.30159,0.36944 0.0919,0.11071 0.11103,0.13196 0.084,0.11096 0.11103,0.14407 0.0964,0.11071 0.11102,0.13271 0.093,0.11095 0.11102,0.12801 0.29814,0.36277 0.0958,0.11096 0.11054,0.14012 h 2.4e-4 l 0.0942,0.11095 0.11079,0.13543 h 2.4e-4 l 0.0847,0.11071 0.11067,0.13418 h 1.2e-4 l 0.0956,0.11071 0.1109,0.14481 0.29313,0.35314 0.0956,0.11096 0.30016,0.36746 0.10005,0.11096 0.10984,0.13369 h 0.001 l 0.0855,0.11071 0.11091,0.13666 0.0924,0.11071 0.11079,0.1332 h 2.3e-4 l 0.28085,0.32644 0.0916,0.11096 0.11103,0.12702 0.0953,0.11096 0.11103,0.1411 0.0919,0.11096 0.11103,0.12554 0.10518,0.11095 0.11102,0.13122 0.1053,0.11096 0.11091,0.12727 0.10137,0.11095 0.11066,0.12183 0.0885,0.11096 2.06022,2.38446 0.0925,0.11096 0.11091,0.13839 0.0978,0.11046 0.11078,0.12331 0.0921,0.11047 0.1109,0.12973 0.0959,0.11071 0.11031,0.13666 0.10375,0.11046 v 2.5e-4 l 0.11091,0.1285 0.10744,0.11096 0.11079,0.11689 0.11472,0.11046 0.11103,0.11714 0.0945,0.11095 0.11078,0.11837 h 2.4e-4 l 0.26284,0.28988 0.10565,0.11095 0.11079,0.11887 0.10184,0.11095 2.54833,2.79988 0.11102,0.1112 0.0893,0.11046 0.11078,0.12801 h 2.4e-4 l 0.10387,0.11096 0.11079,0.12751 0.11078,0.11096 0.11091,0.12282 0.10673,0.11095 0.26737,0.29877 0.10864,0.11096 0.11078,0.1374 h 1.2e-4 l 0.10411,0.11071 0.11031,0.10972 h 6e-4 l 0.11353,0.11096 0.11078,0.1112 0.0993,0.11071 v 2.5e-4 l 0.2564,0.27628 0.11388,0.11095 0.11103,0.11912 0.1053,0.11095 0.1109,0.12776 h 1.2e-4 l 9.43247,9.61322 0.11472,0.11096 0.11103,0.11022 0.11711,0.10996 0.11078,0.12406 0.12665,0.11096 0.11079,0.11318 0.10876,0.11071 0.11066,0.11244 0.10781,0.11095 0.1109,0.11195 0.1053,0.11021 0.11103,0.11318 0.10745,0.11096 0.11078,0.11219 0.12021,0.11096 2.24841,2.17021 0.11603,0.10997 v 7.4e-4 l 0.14859,0.14308 0.11186,0.11071 0.1109,0.0974 0.11163,0.11095 0.1109,0.10973 0.10864,0.11095 0.11091,0.0996 h 1.2e-4 l 0.1183,0.11022 0.11019,0.10848 0.13058,0.11096 0.11102,0.0961 0.11568,0.11096 0.11079,0.0986 h 2.3e-4 l 0.11556,0.11095 0.11103,0.0969 0.12462,0.11071 v 2.4e-4 l 0.223,0.20684 0.11472,0.11096 0.11091,0.10206 1.38083,1.27094 0.10864,0.11096 0.11103,0.0996 0.13559,0.1107 0.1109,0.0976 0.12379,0.11095 0.11079,0.10182 h 2.3e-4 l 0.22468,0.21005 0.11722,0.11096 0.11103,0.0848 0.12116,0.11071 0.11067,0.10305 h 3.5e-4 l 0.11807,0.11095 0.11102,0.10157 0.12009,0.11096 0.21239,0.18509 0.12283,0.11046 0.11043,0.10528 0.12855,0.11095 0.10984,0.0974 h 10e-4 l 0.11198,0.11071 0.14453,0.12603 0.12105,0.11046 0.11031,0.10231 h 5.9e-4 l 0.12188,0.11096 0.11078,0.0937 h 2.4e-4 l 0.14466,0.12776 0.12676,0.11095 0.20822,0.1762 0.13011,0.11096 0.11102,0.0914 0.12081,0.11096 0.11042,0.0971 0.12939,0.11095 0.19808,0.15569 0.1214,0.11096 0.71517,0.62867 0.1468,0.13616 0.12187,0.11096 0.11103,0.10379 0.12283,0.11096 0.11103,0.10502 0.13594,0.11096 0.11091,0.0917 h 1.2e-4 l 0.22002,0.20042 0.13512,0.11071 0.14274,0.11861 0.13488,0.11096 0.11043,0.0944 h 4.7e-4 l 0.12391,0.11096 0.11102,0.0986 0.14728,0.11071 0.11055,0.0917 h 4.8e-4 l 0.27535,0.23402 0.11079,0.0976 0.12784,0.11095 0.20345,0.16656 0.13117,0.11071 0.11007,0.0971 h 3.6e-4 l 0.12939,0.11071 0.11067,0.0993 h 3.6e-4 l 0.13785,0.11071 0.11091,0.1033 0.13344,0.11095 0.11055,0.0932 h 1.2e-4 l 0.38245,0.32274 0.15837,0.12974 0.13905,0.11095 2.18317,1.83685 0.11102,0.086 0.13798,0.11071 0.10936,0.0919 h 4.7e-4 l 0.12617,0.11096 0.11103,0.0927 0.13285,0.11071 0.2193,0.19943 0.11735,0.11095 0.11031,0.0909 0.13929,0.11096 0.11102,0.0949 0.13488,0.11096 0.11078,0.0929 h 2.4e-4 l 0.13178,0.11046 0.1109,0.0944 0.1313,0.11071 0.10971,0.0885 h 10e-4 l 0.13952,0.11096 0.10936,0.0942 h 0.001 l 0.12331,0.11096 0.11055,0.0897 h 4.7e-4 l 0.12701,0.11022 0.11102,0.0853 0.1356,0.11096 0.1109,0.10008 0.1381,0.11047 v 2.4e-4 l 0.19748,0.15371 0.14406,0.11071 v 2.5e-4 l 0.20416,0.16755 0.14859,0.11095 0.11091,0.0954 h 1.2e-4 l 0.19378,0.1463 0.14871,0.11095 0.19427,0.14729 0.14048,0.11095 0.6386,0.5019 0.13464,0.11047 0.11066,0.0924 h 2.4e-4 l 0.1344,0.11096 0.19748,0.15469 0.15289,0.11096 0.11054,0.0781 h 1.2e-4 l 0.13846,0.11046 0.11102,0.0882 0.153,0.11095 0.19272,0.14383 0.14048,0.11071 v 2.4e-4 l 0.71385,0.57975 0.14406,0.11046 0.11102,0.0811 0.31233,0.24959 0.11102,0.0959 0.20607,0.17199 0.14847,0.11096 0.20118,0.16137 0.15575,0.11096 0.1982,0.15642 0.14739,0.11096 0.51601,0.37513 0.15396,0.11096 0.11079,0.084 h 2.4e-4 l 0.15252,0.11095 0.11079,0.0867 0.14978,0.11096 0.11043,0.0934 h 6e-4 l 0.14751,0.11096 0.13905,0.1033 0.13726,0.11095 0.11091,0.0791 0.15228,0.11096 0.11103,0.0808 0.19867,0.15618 0.135,0.11071 0.11091,0.0843 0.59769,0.46039 0.15146,0.11071 0.18365,0.12504 2.87043,2.11757 0.11078,0.0734 h 2.4e-4 l 0.19057,0.13937 0.15753,0.11096 0.51959,0.37884 0.15252,0.11095 0.11043,0.086 0.16016,0.11096 0.11103,0.0833 0.14847,0.11095 0.11102,0.0811 0.16898,0.11096 0.11091,0.0724 0.14859,0.11096 0.10983,0.0771 0.14346,0.11096 0.44685,0.30346 0.1592,0.11071 0.11067,0.0754 0.16934,0.11047 v 4.9e-4 l 0.18484,0.12776 0.15813,0.11071 0.11091,0.0853 0.15431,0.11095 0.11055,0.0863 h 2.4e-4 l 0.16301,0.11096 0.18318,0.12454 0.166,0.11096 0.11102,0.0791 0.15491,0.11096 0.11103,0.0749 0.14942,0.11071 0.11055,0.0754 h 3.6e-4 l 0.50742,0.36647 0.17113,0.11096 0.11043,0.0729 h 6e-4 l 0.1561,0.11096 0.11079,0.0709 0.15061,0.11096 0.10995,0.0773 h 0.001 l 0.1536,0.11095 6.51648,4.36711 0.17256,0.11096 0.11103,0.0709 0.15956,0.11096 0.17864,0.11491 0.15467,0.11071 0.1765,0.11096 0.17911,0.11095 0.11043,0.084 h 6e-4 l 0.17566,0.1107 2.97668,1.92112 0.17531,0.11095 0.11055,0.0759 h 2.3e-4 l 0.16004,0.11096 0.11067,0.0739 h 3.6e-4 l 0.16504,0.11071 0.13524,0.0875 0.18162,0.11096 0.11043,0.0707 h 2.4e-4 l 0.17125,0.11096 0.11019,0.0781 h 7.1e-4 l 0.18043,0.11095 0.11067,0.0707 h 3.6e-4 l 0.19402,0.11096 0.11079,0.0667 0.17816,0.11095 0.11067,0.0675 0.18556,0.11096 0.11102,0.0633 0.15933,0.11071 v 2.4e-4 l 0.38972,0.24391 0.17279,0.11096 0.12677,0.0941 0.18687,0.11096 0.11019,0.0682 h 6e-4 l 0.17602,0.11096 0.11102,0.0635 0.17375,0.11096 0.11067,0.0628 0.19092,0.11095 0.11067,0.0719 h 2.4e-4 l 0.18818,0.11095 0.11067,0.0776 0.17435,0.11095 0.11007,0.0576 h 9.5e-4 l 0.19117,0.11071 v 2.5e-4 l 0.17613,0.11022 0.39032,0.25206 0.11067,0.062 h 2.4e-4 l 0.17351,0.11095 0.11102,0.0689 0.18687,0.11071 0.17638,0.11096 0.61129,0.37339 0.17399,0.10528 0.19141,0.11096 0.11043,0.0647 h 5.9e-4 l 0.20858,0.11096 0.11078,0.0709 1.53467,0.92003 0.17066,0.0983 0.17423,0.11096 0.10959,0.0741 h 0.001 l 0.19176,0.11071 v 2.4e-4 l 0.11079,0.0709 h 1.2e-4 l 0.19963,0.11071 v 2.4e-4 l 0.17375,0.10602 0.1722,0.11095 0.11103,0.066 0.20988,0.11046 v 2.5e-4 l 0.17244,0.10206 0.20798,0.11095 0.11031,0.061 h 3.6e-4 l 0.2236,0.11096 0.11031,0.0568 h 5.9e-4 l 0.21502,0.11095 0.11102,0.0618 0.20643,0.11096 0.38197,0.23625 0.1914,0.11071 v 2.4e-4 l 0.17006,0.0974 0.19533,0.11071 0.20917,0.12109 0.1988,0.11095 0.11079,0.0625 h 2.3e-4 l 0.19618,0.11071 v 2.4e-4 l 0.36455,0.21796 0.19975,0.11096 0.11019,0.0665 h 8.4e-4 l 0.37183,0.22636 0.18639,0.11046 v 4.9e-4 l 0.16672,0.0904 0.18866,0.11071 0.11019,0.0596 0.1914,0.11095 0.16445,0.0853 0.18341,0.11096 0.11031,0.0576 h 6e-4 l 0.33391,0.18657 0.19271,0.11096 0.16684,0.0902 0.18842,0.11095 0.10947,0.0643 h 0.001 l 0.21001,0.11096 0.11067,0.0613 0.1914,0.11095 0.10959,0.0675 h 0.001 l 0.19986,0.11096 0.10948,0.0667 h 8.3e-4 l 0.20297,0.11095 0.11091,0.061 0.19903,0.11096 0.10995,0.0596 h 2.4e-4 l 0.21108,0.11095 16.64993,8.50069 0.23469,0.11071 0.10959,0.0516 h 0.001 l 0.25412,0.11095 0.11103,0.0558 0.21907,0.11096 0.11031,0.0529 0.22742,0.11096 0.11042,0.0499 h 4.8e-4 l 0.23946,0.11095 0.11103,0.0497 0.23671,0.11095 0.11091,0.0526 0.22479,0.11096 0.15897,0.0754 0.23373,0.11096 0.10936,0.0499 h 0.002 l 0.15753,0.0709 0.22873,0.11095 0.11007,0.0521 h 9.6e-4 l 0.23206,0.11095 0.15587,0.068 0.23922,0.11096 0.11055,0.0551 0.2453,0.11095 0.11103,0.046 0.24721,0.11095 0.1109,0.0526 0.2558,0.11096 0.11091,0.0509 0.23159,0.11096 0.10852,0.0502 h 0.002 l 0.24757,0.11071 0.10983,0.0455 h 9.5e-4 l 0.27035,0.11095 0.15861,0.0734 0.24149,0.11071 0.11066,0.0583 0.25365,0.11095 0.2793,0.1295 0.26426,0.11095 0.15718,0.0712 1.0598,0.48337 0.10972,0.0531 h 5.9e-4 l 6.90955,2.98373 0.11066,0.045 h 3.6e-4 l 1.95719,0.79325 0.11031,0.0423 h 3.6e-4 l 0.28322,0.11096 0.11079,0.046 0.26546,0.11096 0.1499,0.0551 0.28144,0.11096 0.11031,0.045 0.2868,0.11095 0.11103,0.0465 0.28668,0.11096 0.11103,0.0507 0.29944,0.11096 0.24781,0.0971 0.28323,0.11095 0.11102,0.0484 0.28323,0.11095 0.109,0.0376 h 0.002 l 0.15145,0.0586 0.2713,0.11096 0.11102,0.0383 0.33618,0.11096 0.10959,0.0433 h 10e-4 l 0.28228,0.11095 0.1109,0.0428 0.28478,0.11095 0.15193,0.0593 0.29456,0.11096 0.14799,0.0512 0.27547,0.11096 0.1542,0.0657 0.27524,0.11096 0.11066,0.0373 0.25759,0.11095 0.11091,0.0398 h 1.2e-4 l 0.2868,0.11096 0.10936,0.0504 h 0.001 l 0.29789,0.11071 v 2.4e-4 l 0.68833,0.27233 0.11103,0.0489 0.32151,0.11096 0.10911,0.039 h 0.001 l 1.27721,0.46582 0.30469,0.11096 0.11043,0.0386 h 3.6e-4 l 0.28656,0.11096 0.24948,0.0989 0.29742,0.11071 0.11091,0.0435 0.30195,0.11096 0.15181,0.0596 0.28263,0.11096 0.10673,0.0408 h 0.004 l 0.30601,0.11095 0.11078,0.0395 0.27238,0.11096 0.10959,0.0398 h 8.4e-4 l 0.30552,0.11071 0.11055,0.0413 0.314,0.11096 0.11066,0.039 h 3.6e-4 l 0.23946,0.0882 0.31805,0.11095 0.15086,0.0571 0.32926,0.11096 0.15431,0.0642 0.3388,0.11071 0.40558,0.1453 0.30887,0.11096 0.11066,0.0346 h 3.6e-4 l 0.29229,0.11095 0.11079,0.0373 h 2.4e-4 l 0.30958,0.11096 0.1109,0.0474 0.32914,0.11096 0.11079,0.0408 h 2.4e-4 l 0.36432,0.11096 0.23242,0.0813 0.30851,0.11071 0.10971,0.0428 h 10e-4 l 0.34213,0.11071 v 2.4e-4 l 0.9557,0.33386 0.10912,0.0373 h 0.002 l 0.32616,0.11095 0.15026,0.0564 0.31148,0.11095 0.11091,0.0319 h 1.2e-4 l 0.32198,0.11096 0.62263,0.22018 0.1462,0.0479 0.31209,0.11095 0.14978,0.0554 0.51732,0.16483 0.31674,0.11095 0.11102,0.0371 0.3047,0.11096 0.1109,0.042 0.32377,0.11071 0.1096,0.0403 0.36134,0.11096 0.1468,0.0489 0.33748,0.11095 0.11067,0.0351 h 3.6e-4 l 0.34655,0.11096 0.11007,0.0339 0.36182,0.11095 0.11007,0.0393 h 9.5e-4 l 0.34476,0.11096 0.14382,0.0427 0.31996,0.11096 0.11067,0.0351 h 3.5e-4 l 0.37923,0.11096 0.11103,0.0314 0.32448,0.11096 0.11008,0.0346 h 8.3e-4 l 0.39568,0.11095 0.10912,0.0311 h 0.002 l 0.35406,0.11096 0.11103,0.0321 0.33331,0.11096 0.14454,0.044 0.36145,0.11095 0.10876,0.0378 h 0.002 l 0.21919,0.0675 0.36205,0.11095 0.11067,0.0356 0.38602,0.11096 0.11079,0.0346 0.61117,0.19152 0.39568,0.11096 0.14585,0.0479 0.39867,0.11071 0.45208,0.13863 0.37422,0.11096 0.10924,0.0351 h 0.002 l 0.20988,0.0581 0.38138,0.11096 0.21537,0.0635 0.34726,0.11071 0.11091,0.0358 0.36384,0.11096 0.14334,0.0415 0.39855,0.11095 0.32675,0.0907 0.37029,0.11095 0.23063,0.0793 0.41655,0.11096 0.21025,0.0581 0.42418,0.11046 v 2.5e-4 l 0.1604,0.044 0.36491,0.11071 v 2.4e-4 l 0.17077,0.0465 0.39044,0.11096 0.14585,0.0469 0.39198,0.11096 0.14132,0.0378 0.4317,0.11096 0.26319,0.0739 0.38817,0.11096 0.10959,0.0304 h 8.4e-4 l 0.4088,0.11071 v 2.4e-4 l 0.20619,0.0541 0.39985,0.11096 0.10984,0.0279 h 10e-4 l 0.39556,0.11096 0.14239,0.0403 0.43265,0.11071 v 2.5e-4 l 0.20965,0.0573 0.46068,0.11071 0.12223,0.0341 0.48846,0.12801 0.4063,0.11096 0.31912,0.0858 0.39747,0.11096 0.11031,0.0287 h 6e-4 l 0.4255,0.11096 0.10935,0.0289 h 0.002 l 0.42812,0.11096 0.11067,0.0309 h 1.2e-4 l 0.45757,0.11096 0.1418,0.0395 0.4243,0.11095 0.10745,0.0284 h 0.001 l 0.40737,0.11096 0.11079,0.0292 0.4825,0.11095 0.11066,0.0245 h 3.6e-4 l 0.44589,0.11096 0.13714,0.0294 1.12802,0.27232 0.49836,0.11096 0.11007,0.0217 h 6e-4 l 0.44469,0.11096 0.11091,0.0299 h 1.2e-4 l 0.13797,0.0306 0.45555,0.11095 1.808,0.41937 0.45174,0.11095 0.11019,0.023 0.47451,0.11096 0.10697,0.0279 h 0.004 l 0.50826,0.11095 0.11091,0.0316 0.45328,0.11096 0.10936,0.0299 h 9.5e-4 l 0.50384,0.11096 0.109,0.0254 h 0.002 l 0.48155,0.11096 0.11102,0.0262 0.27846,0.0573 0.48846,0.11095 0.19605,0.0433 0.28645,0.063 0.50122,0.11096 0.11055,0.0269 0.52364,0.11095 0.13667,0.0292 0.51958,0.11095 0.11007,0.0225 h 8.4e-4 l 0.51148,0.11096 0.10995,0.0252 h 9.5e-4 l 0.5376,0.11096 0.10864,0.0247 h 0.002 l 0.40308,0.0843 0.53533,0.11096 0.10864,0.0272 h 0.002 l 0.56658,0.11096 0.10935,0.0217 h 6e-4 l 0.59651,0.11096 0.11102,0.0232 0.61893,0.11096 0.10768,0.0227 h 0.003 l 0.57588,0.11096 0.1109,0.0242 0.53819,0.11095 0.11103,0.0158 0.57265,0.11096 0.10948,0.0195 h 10e-4 l 0.26427,0.0482 0.60139,0.11095 0.11043,0.0171 h 2.4e-4 l 0.60652,0.11095 0.19081,0.0378 0.58493,0.11096 0.11019,0.0161 h 8.4e-4 l 0.61916,0.11071 0.10948,0.019 h 9.5e-4 l 0.63813,0.11096 0.11043,0.0195 0.60771,0.11096 0.13416,0.0227 0.66734,0.11096 0.10721,0.0237 h 4.8e-4 l 0.71671,0.11096 5.24382,0.79103 0.1109,0.0158 h 1.2e-4 l 0.84646,0.11095 0.11091,0.0146 0.87544,0.11046 v 2.5e-4 l 0.17816,0.0257 0.86053,0.11096 0.10864,0.0121 h 0.002 l 0.89762,0.11096 0.10638,0.0119 h 0.004 l 0.95498,0.11095 0.10745,0.0106 h 0.002 L 324,316.8 v 0" /></g></g><g
       id="g106"><g
         clip-path="url(#clipPath112)"
         id="g108"><path
           id="path114"
           style="fill:none;stroke:#ff7f0e;stroke-width:1.5;stroke-linecap:square;stroke-linejoin:round;stroke-miterlimit:10;stroke-dasharray:none;stroke-opacity:1"
           d="m 45,45 0.109996,2.288346 0.0093,0.106253 0.109996,1.472005 0.0093,0.101071 0.109996,1.399441 0.0106,0.108846 0.109996,1.29837 0.01193,0.08811 0.109996,1.140286 0.004,0.103662 0.109996,0.938144 0.0106,0.0907 0.109996,0.987383 0.01988,0.09589 0.109996,0.875946 0.01723,0.106254 0.109996,0.883721 0.0093,0.0933 0.10867,0.798199 0.0159,0.09848 0.109996,0.894087 0.02253,0.103662 0.10867,0.96406 0.0093,0.106254 0.108671,0.691946 0.01193,0.0907 0.109996,0.857806 0.01723,0.09848 0.109996,0.68158 0.01855,0.09848 0.109995,0.793017 0.01988,0.108845 0.109996,0.873355 0.03048,0.106254 0.108671,0.787834 0.01458,0.103662 0.109996,0.533861 0.01723,0.06997 0.109995,0.707495 0.01723,0.108846 0.109996,0.678988 0.01458,0.108845 0.108671,0.751552 0.03181,0.101071 0.109996,0.803383 0.01988,0.0907 0.109996,0.717862 0.01855,0.0933 0.109996,0.720453 0.01723,0.0907 0.109996,0.668621 0.0053,0.06738 0.109996,0.668622 0.0212,0.108845 0.109996,0.536453 0.02253,0.103662 0.109995,0.634932 0.02651,0.106254 0.107346,0.5831 0.02651,0.09848 0.109996,0.549411 0.01855,0.0907 0.108671,0.601242 0.02386,0.103662 0.10867,0.583101 0.02783,0.09848 0.109995,0.559776 0.02253,0.106254 0.109996,0.559777 0.01988,0.103662 0.106021,0.585692 0.02518,0.103662 0.109996,0.640115 0.0106,0.103662 0.108671,0.541636 0.0212,0.09848 0.109996,0.54941 0.0212,0.103663 0.109996,0.593467 0.04771,0.10107 0.109996,0.601242 0.02783,0.108845 0.108671,0.445748 0.01855,0.101071 0.109996,0.567551 0.02916,0.103662 0.109996,0.427607 0.03313,0.108846 0.108671,0.536452 0.03313,0.108846 0.109996,0.572734 0.0212,0.103662 0.108671,0.391326 0.03313,0.103662 0.108671,0.624565 0.02518,0.09589 0.109996,0.461297 0.02386,0.108846 0.109996,0.445748 0.03181,0.09848 0.109996,0.557185 0.02915,0.108845 0.109996,0.489805 0.02916,0.09848 0.109996,0.46648 0.03446,0.106254 0.109996,0.588284 0.02386,0.103662 0.109995,0.476847 0.02385,0.108845 0.109996,0.409466 0.03976,0.108846 0.10602,0.34986 0.04241,0.101071 0.109996,0.546819 0.03048,0.103662 0.109996,0.48203 0.03976,0.101071 0.108671,0.507945 0.03181,0.108845 0.10867,0.502763 0.02253,0.0907 0.10867,0.391325 0.03313,0.108846 0.109995,0.471663 0.02783,0.108846 0.109996,0.489804 0.02651,0.101071 0.10867,0.375776 0.03578,0.106254 0.108671,0.373184 0.03578,0.09589 0.109996,0.484621 0.04241,0.106254 0.10867,0.347269 0.03181,0.09848 0.108671,0.401691 0.01723,0.106254 0.108671,0.347269 0.04903,0.106254 0.109996,0.440565 0.03181,0.10107 0.109996,0.469072 0.03843,0.103663 0.109996,0.414648 0.03446,0.0959 v 0.013 l 0.109996,0.4276 0.02651,0.10626 0.10602,0.32135 0.03181,0.10366 0.109996,0.3706 0.02916,0.10625 0.109995,0.41465 0.03843,0.0985 0.109996,0.31358 0.02783,0.0985 0.109996,0.368 0.02651,0.10366 0.107345,0.37837 0.03446,0.10366 0.10337,0.37318 0.03711,0.10367 0.109995,0.43019 0.03048,0.0959 0.107346,0.35764 0.03711,0.10884 0.109996,0.3991 0.04506,0.10107 0.109996,0.43798 0.04108,0.10884 0.108671,0.35764 0.04506,0.10107 v 0.005 l 0.108671,0.29285 0.03181,0.10625 0.108671,0.35764 0.02783,0.0985 0.108671,0.37059 0.04241,0.10625 0.10867,0.28766 0.04108,0.10885 0.108671,0.34986 0.03048,0.10625 0.10867,0.40429 0.03578,0.10884 0.109996,0.32136 0.02916,0.10884 0.109996,0.25657 0.02651,0.0959 0.108671,0.32395 0.04771,0.10884 0.109996,0.37578 0.05433,0.10366 0.109996,0.31099 0.02783,0.10884 0.109995,0.29803 0.02121,0.10885 0.109995,0.40687 0.03313,0.10107 0.109996,0.44316 0.03181,0.10625 0.109996,0.26434 0.04638,0.10626 0.109996,0.34468 0.0212,0.10625 0.109996,0.29803 0.03711,0.10884 0.109996,0.31099 0.03048,0.0985 0.108671,0.35763 0.04108,0.10885 0.107345,0.28248 0.05036,0.0985 0.109995,0.34208 0.01988,0.10108 0.109996,0.29284 0.03843,0.10625 0.106021,0.38096 0.04638,0.10885 0.109996,0.29285 0.04108,0.0907 0.108671,0.35245 0.04903,0.10885 0.109996,0.29544 0.04638,0.10884 0.109996,0.37059 0.03843,0.10885 0.107346,0.29285 0.03976,0.10884 0.109996,0.36282 0.05566,0.10884 0.104694,0.30581 0.05699,0.10884 0.109996,0.2773 0.03711,0.10107 0.109996,0.35504 0.03313,0.0881 0.109996,0.35504 0.03711,0.10625 0.108671,0.2462 0.04506,0.10885 0.109996,0.32394 0.03578,0.10107 0.107346,0.32136 0.03711,0.10625 0.109996,0.30321 0.05036,0.10885 0.109996,0.33172 0.04506,0.10884 0.108671,0.35764 0.04373,0.10884 0.109996,0.26953 0.04108,0.0959 0.10867,0.30062 0.04771,0.10885 0.109996,0.29544 0.03976,0.10884 0.109996,0.30321 0.03446,0.10107 0.109996,0.38096 0.05699,0.10885 0.109996,0.3084 0.04373,0.10884 0.108671,0.29544 0.05699,0.10107 0.107345,0.3058 0.04771,0.10366 0.109996,0.35764 0.05036,0.10107 0.10867,0.2462 0.05434,0.10884 0.109996,0.29803 0.03843,0.10885 0.109996,0.30839 0.03181,0.10367 0.109996,0.32394 0.06494,0.10885 0.109996,0.32653 0.04771,0.10885 0.109996,0.29284 0.04771,0.10885 0.107346,0.28248 0.05036,0.10625 0.109996,0.40429 0.02916,0.10884 0.109995,0.33431 0.03578,0.10626 0.108671,0.26693 0.03711,0.10625 0.109996,0.26952 0.03976,0.10366 0.108671,0.23584 0.05036,0.10884 0.109996,0.21769 0.05964,0.10885 0.109996,0.32653 0.05036,0.10367 0.109996,0.29543 0.04241,0.10885 0.108671,0.28248 0.05433,0.10884 0.109996,0.28248 0.03976,0.10108 0.109996,0.26174 0.04903,0.10885 0.109996,0.22546 0.04241,0.10107 0.108671,0.22029 0.05831,0.10884 0.108671,0.31876 0.04903,0.10626 0.108671,0.26693 0.03446,0.10625 0.109996,0.29544 0.04373,0.10885 0.109996,0.17622 0.04638,0.10366 0.108671,0.27471 0.04241,0.0881 0.10867,0.29544 0.04904,0.0959 0.109996,0.2747 0.05433,0.10366 0.107345,0.2773 0.05566,0.10625 0.109996,0.2773 0.03446,0.10885 0.109996,0.30062 0.05566,0.10625 0.109996,0.25916 0.04241,0.10884 0.109996,0.23324 0.05433,0.10626 0.109996,0.27729 0.04241,0.10626 0.109996,0.29284 0.04903,0.10626 0.0106,0.0259 h 0.0013 l 0.803102,1.89961 0.109996,0.28248 0.05301,0.0959 0.108671,0.22806 0.05964,0.10884 0.109996,0.23584 0.03843,0.10884 0.109995,0.28767 0.06229,0.10884 0.109996,0.19437 0.03711,0.0985 0.109996,0.26693 0.05566,0.10625 0.109996,0.28507 0.06096,0.10885 0.108671,0.17882 0.05169,0.10884 0.10867,0.25656 0.04904,0.10108 0.109996,0.27729 0.05964,0.10626 0.109996,0.2436 0.03843,0.10626 0.108671,0.13735 0.03446,0.10625 0.109996,0.27989 0.06759,0.10885 0.109996,0.27211 0.04638,0.10625 0.107345,0.19955 0.05036,0.10626 0.108671,0.27729 0.04903,0.10367 0.109996,0.29025 0.06229,0.10885 0.10602,0.2436 0.07289,0.10107 0.10867,0.18919 0.05699,0.10884 0.107346,0.21251 0.05301,0.10625 0.10867,0.22547 0.03048,0.10625 0.109996,0.17105 0.07024,0.0985 0.107346,0.23064 0.03578,0.10885 0.10867,0.20473 0.04373,0.10626 0.107345,0.25397 0.05301,0.10625 0.109996,0.20992 0.06494,0.10366 0.109996,0.28767 0.05964,0.10884 0.107345,0.16327 0.05036,0.10625 0.109996,0.21769 0.07554,0.10885 0.109996,0.24879 0.04903,0.10625 0.10337,0.23065 0.07289,0.10885 0.109996,0.184 0.07156,0.10366 0.108671,0.2747 0.04506,0.10367 0.108671,0.184 0.04638,0.10884 0.100719,0.19178 0.07819,0.10884 0.109996,0.20992 0.04373,0.10885 0.108671,0.20214 0.07289,0.10107 0.109996,0.15031 0.06891,0.10884 0.109996,0.18141 0.06229,0.10885 0.108671,0.20214 0.05566,0.10884 0.109996,0.15291 0.05566,0.10366 0.109996,0.18659 0.04506,0.10885 0.109996,0.17881 0.06096,0.10626 0.107346,0.19955 h 0.0027 l 3.684201,6.97129 0.05964,0.10884 0.109996,0.20474 0.07952,0.10884 0.109996,0.18659 0.04903,0.10885 0.108671,0.17363 0.05831,0.10626 0.109996,0.3058 0.05964,0.10626 0.109996,0.24101 0.07951,0.10885 0.102045,0.18659 0.06891,0.10625 0.10867,0.1866 0.06229,0.10625 0.109996,0.17622 0.08747,0.10885 0.107345,0.2151 0.05831,0.10366 0.108671,0.17623 0.07289,0.10625 v 0.003 l 0.670577,1.07032 0.04506,0.10625 0.109996,0.17623 0.05831,0.10366 0.107345,0.16586 0.08614,0.10884 0.10867,0.22288 0.09807,0.10884 0.108671,0.16068 0.07554,0.10884 0.109996,0.19178 0.06626,0.10366 0.109995,0.19955 0.05301,0.10885 0.10602,0.14253 0.06229,0.10885 0.10867,0.21251 0.09542,0.10884 0.109996,0.22288 0.07156,0.10625 0.109996,0.22547 0.07156,0.10884 0.107346,0.18141 h 0.0027 l 0.10602,0.10885 0.102045,0.18918 0.08349,0.10366 0.10867,0.17104 0.07819,0.10885 0.109996,0.22028 0.08482,0.10885 0.108671,0.17622 0.04771,0.10367 0.10602,0.18659 0.109996,0.10884 0.109996,0.20474 0.05964,0.10625 0.109996,0.21251 0.07554,0.10625 0.10602,0.22028 0.05964,0.10367 0.109996,0.20214 0.05433,0.0959 0.108671,0.20473 0.07952,0.10625 0.10337,0.16586 0.107345,0.10366 0.109996,0.18401 0.08217,0.10884 0.109996,0.16845 0.07156,0.10885 0.108671,0.20473 0.08482,0.0959 0.107346,0.2151 0.08747,0.10884 0.109996,0.184 0.05433,0.10885 0.09939,0.1529 0.06891,0.10366 0.109996,0.20474 0.05831,0.10884 0.108671,0.19696 0.09144,0.10626 0.108671,0.16326 0.07289,0.10626 0.109996,0.16326 0.09939,0.10885 0.107345,0.184 0.06891,0.10366 0.107346,0.16327 0.07686,0.10625 0.109996,0.13477 0.07289,0.10884 0.10602,0.16327 0.07686,0.10884 0.108671,0.13477 0.09144,0.10884 0.109996,0.20214 0.06361,0.10367 0.109996,0.17363 0.06096,0.10884 0.109996,0.20215 0.06759,0.10884 0.09939,0.16327 0.05433,0.10625 0.109996,0.18141 0.08614,0.10885 0.109996,0.16067 0.07819,0.10108 0.109995,0.20214 0.08747,0.10625 0.107345,0.15549 0.06891,0.10367 0.109996,0.16067 0.08747,0.10885 0.107346,0.2151 0.07952,0.10884 0.10867,0.19437 0.06891,0.10625 0.09277,0.18919 2.496775,3.63077 0.10867,0.13735 0.09542,0.10626 0.10867,0.16586 0.06759,0.0829 v 0.0104 l 0.108671,0.17105 0.09144,0.10884 0.09674,0.17104 0.08747,0.10626 0.09939,0.12439 0.117948,0.10885 0.109995,0.15031 0.08482,0.10884 0.10867,0.1555 0.10602,0.0985 0.102045,0.17104 0.07952,0.10625 0.109996,0.19437 0.09807,0.10885 0.107345,0.16845 0.09012,0.10884 0.109996,0.17623 0.07156,0.10366 0.109995,0.23583 0.07289,0.10885 0.108671,0.15549 0.07156,0.10885 0.109996,0.1529 0.05831,0.10884 0.109996,0.14513 0.04506,0.10885 0.108671,0.16326 0.07024,0.10108 0.109996,0.1218 0.08879,0.10625 0.108671,0.0985 0.06096,0.10885 0.102045,0.13735 h 0.0066 l 0.09542,0.10107 0.107345,0.16068 0.09012,0.10366 0.109995,0.16327 0.09674,0.10884 0.10867,0.1555 0.05301,0.10625 0.109995,0.15549 0.07156,0.10885 0.107346,0.17623 0.08084,0.10884 0.109996,0.18141 0.06096,0.10885 0.108671,0.12957 0.104695,0.10626 0.108671,0.17363 0.09939,0.10885 0.109995,0.18918 0.08482,0.10885 0.10867,0.11662 0.0888,0.10884 0.10867,0.13217 0.0954,0.10366 0.10999,0.1555 0.11928,0.10884 0.10867,0.16845 0.0782,0.10367 0.10734,0.16067 0.16301,0.10626 0.10999,0.17622 0.10072,0.10885 0.11,0.17622 0.0769,0.10885 0.10735,0.15031 0.0981,0.10625 0.10999,0.17105 0.1047,0.10625 0.10734,0.17623 0.0901,0.10625 0.10867,0.11403 0.10867,0.10884 0.10205,0.0855 0.0822,0.10885 0.11,0.16327 0.10337,0.10366 0.10999,0.1529 0.0689,0.10367 0.0994,0.1218 0.10337,0.10625 0.11,0.13217 0.0994,0.10885 0.0954,0.14772 0.11132,0.10884 0.10867,0.16068 0.0901,0.10884 0.10867,0.16068 0.0888,0.10107 0.10735,0.16586 0.0769,0.10885 0.11,0.18659 0.11132,0.10625 0.10867,0.14772 0.0729,0.10107 0.10469,0.16327 0.0914,0.10884 0.11,0.15291 0.10867,0.10884 0.67323,0.80598 0.10602,0.0933 0.10602,0.10885 0.10999,0.15549 0.0769,0.10626 0.10602,0.13735 0.0914,0.10625 0.11,0.1244 0.0888,0.10625 0.10735,0.17623 0.0755,0.10884 0.10735,0.16068 0.11132,0.10884 0.11,0.17105 0.10204,0.10884 0.11,0.12181 0.0822,0.10625 0.10735,0.13994 0.10337,0.10626 0.10867,0.0907 0.10602,0.10626 0.10734,0.12439 0.0729,0.10366 0.10602,0.14772 0.0782,0.10885 0.10867,0.15808 0.0875,0.10885 0.10867,0.13994 0.0928,0.10885 0.10867,0.11143 0.0769,0.10885 0.10735,0.0881 0.0928,0.10885 0.10602,0.0959 0.0875,0.10366 0.11,0.1529 0.0729,0.10625 0.10999,0.15809 0.11133,0.10884 0.10867,0.17364 0.11397,0.10625 0.10867,0.15809 0.10204,0.10884 0.10867,0.184 0.0822,0.10626 0.10867,0.10625 0.0941,0.10366 0.10205,0.15809 h 0.007 l 0.11,0.10884 0.11,0.16846 0.0795,0.0907 0.11,0.17104 0.10867,0.10885 0.10999,0.13735 0.0981,0.10885 0.10867,0.13994 0.0941,0.10625 0.10999,0.12699 0.0822,0.10885 0.10867,0.11921 0.0954,0.10625 0.10868,0.14254 0.0941,0.10884 0.10999,0.16327 0.0994,0.10885 0.10999,0.13217 0.0888,0.10884 0.10867,0.16327 0.0941,0.10884 0.11,0.14513 0.0689,0.10626 0.10867,0.12439 0.0981,0.10885 0.10867,0.14512 0.0875,0.10885 0.10602,0.11662 0.11264,0.10884 0.11,0.12958 0.10602,0.10885 0.10867,0.11403 h 0.001 l 0.0968,0.10884 0.10867,0.11403 0.11132,0.10885 0.10735,0.12439 0.10999,0.10885 0.11,0.15549 0.0875,0.10884 0.11,0.12699 0.0769,0.10626 0.10337,0.13216 h 0.005 l 0.12723,0.10885 0.10602,0.14513 h 0.004 l 0.25445,0.25915 0.10867,0.10885 0.10867,0.11662 0.0861,0.10884 0.10867,0.0855 0.0994,0.10885 0.10602,0.14772 0.1153,0.10884 0.10867,0.13477 0.0848,0.10107 0.11,0.12439 0.0848,0.10885 0.10999,0.12958 0.0861,0.10366 0.11,0.10107 0.0742,0.10884 0.10602,0.13736 0.10072,0.10884 0.10602,0.11144 0.10337,0.10884 0.17626,0.25138 0.11397,0.10885 0.10867,0.13994 0.13915,0.10885 0.10205,0.11403 0.1312,0.10884 0.11,0.13477 0.0928,0.10884 0.11,0.13994 0.11662,0.10626 0.10602,0.11403 0.0981,0.10625 0.11,0.13217 0.0875,0.10885 0.10735,0.12957 0.0795,0.10885 0.1047,0.10625 0.0994,0.10885 0.10867,0.0855 0.0968,0.10884 0.10867,0.17364 0.0822,0.10884 0.11,0.07 0.1418,0.10625 0.10469,0.11662 h 0.005 l 0.10204,0.10625 0.11,0.16586 0.0861,0.0985 0.10867,0.14513 0.10734,0.10885 0.10735,0.13217 0.12192,0.10884 0.10602,0.11144 0.12855,0.10884 0.10867,0.15809 0.0808,0.10884 0.10867,0.1244 0.10205,0.10884 0.10867,0.1244 0.0981,0.10884 0.10867,0.14513 0.10204,0.10885 0.10735,0.12698 0.11264,0.10885 0.10867,0.11921 0.12855,0.10625 0.11,0.12958 0.10337,0.10885 0.10867,0.12958 0.0901,0.10366 0.10469,0.10107 0.11927,0.10884 0.10868,0.14254 0.0835,0.10885 0.10602,0.10884 0.0848,0.10625 0.10735,0.15809 0.12325,0.10366 0.10867,0.0933 0.1206,0.10625 0.10999,0.0959 0.12723,0.10884 0.10867,0.12181 0.12457,0.10884 0.10867,0.12958 0.12457,0.10885 10.78623,10.39733 0.0941,0.10884 0.11,0.10885 0.11397,0.10625 0.11,0.0803 0.11794,0.10885 0.10735,0.10107 0.14048,0.10884 0.10999,0.12958 0.12457,0.10884 0.10205,0.0985 h 0.007 l 0.11132,0.10885 0.10999,0.12439 0.13385,0.10626 0.10867,0.0855 0.1153,0.10625 0.10735,0.1555 0.16433,0.10884 0.2571,0.26175 0.0981,0.10885 0.0994,0.10884 0.1524,0.10625 0.10735,0.11662 h 0.003 l 0.16831,0.10885 0.10999,0.11921 0.15506,0.10885 0.10602,0.11143 0.13915,0.10626 0.10204,0.10366 0.12325,0.10885 0.10735,0.0985 0.11662,0.10885 0.10999,0.0933 0.1259,0.10884 0.11,0.10107 0.1418,0.10885 0.11,0.10884 0.10337,0.10885 0.10734,0.12699 0.15903,0.10884 0.11,0.11662 0.16698,0.10885 0.11,0.1218 0.12059,0.10884 0.0994,0.0933 0.1365,0.10885 0.10999,0.057 0.15241,0.10885 0.10867,0.0959 0.12325,0.10885 0.10999,0.0907 0.11397,0.10885 0.11,0.0829 0.17626,0.10625 0.10602,0.0778 0.11795,0.10885 0.10867,0.12439 0.1577,0.10885 0.10867,0.0933 0.12193,0.10885 0.10999,0.12439 0.1206,0.10626 0.11,0.11662 0.12059,0.10884 0.10072,0.0648 h 0.008 l 0.14976,0.10885 0.10999,0.0933 0.11928,0.10885 0.10602,0.0907 0.15903,0.10885 0.10204,0.10625 h 0.005 l 0.18554,0.10625 0.10072,0.0778 h 0.009 l 0.16699,0.10885 0.10867,0.0959 0.1259,0.10885 0.10469,0.0881 0.14048,0.10885 0.10602,0.0726 0.12722,0.10885 0.10867,0.12698 0.13783,0.10885 0.10602,0.0907 0.12722,0.10885 0.10735,0.10884 0.1312,0.10108 0.10602,0.13216 h 0.004 l 0.15241,0.10885 0.10602,0.10107 h 0.004 l 0.10602,0.10625 0.10337,0.10626 0.16168,0.10625 0.11,0.15031 0.14048,0.10626 0.10734,0.0881 0.13385,0.10885 0.1047,0.0855 0.13252,0.10884 0.0981,0.10107 0.16301,0.10885 0.10867,0.13994 0.13517,0.10626 0.11,0.1218 0.14445,0.10884 0.10602,0.0985 0.12325,0.10885 0.10602,0.07 0.11927,0.10626 0.10867,0.07 0.13253,0.10366 0.11,0.11662 0.16433,0.10625 0.10867,0.0855 0.18686,0.10625 0.10204,0.12439 0.14976,0.10626 0.10602,0.10107 0.16433,0.10884 0.17493,0.11662 0.16831,0.10885 0.10734,0.0959 h 0.003 l 0.10205,0.10884 0.10602,0.10626 0.12457,0.10884 0.10735,0.11144 0.15108,0.10884 0.10734,0.10626 0.12192,0.10884 0.11,0.11922 0.11397,0.10884 0.10735,0.0829 0.11529,0.10885 0.10867,0.11402 0.13916,0.10626 0.10734,0.0907 0.15108,0.10626 0.10867,0.0803 0.12855,0.10885 0.10602,0.0777 0.11795,0.10884 0.10999,0.10626 0.17096,0.10884 0.10867,0.0985 0.12723,0.10885 0.10999,0.10366 0.13385,0.10884 0.11,0.0648 0.12457,0.10885 0.10867,0.12439 0.19084,0.10626 0.11,0.0985 0.11927,0.10625 0.10999,0.10625 0.13783,0.10885 0.10735,0.0778 0.18023,0.10884 0.10867,0.0648 0.15771,0.10885 0.10734,0.0622 0.20541,0.10885 0.11,0.0726 0.11265,0.10107 v 0.005 l 0.10337,0.0907 h 0.004 l 0.15903,0.10885 0.11,0.11143 0.10469,0.0985 0.10867,0.0855 0.14711,0.10885 0.0981,0.07 0.16433,0.10885 0.10999,0.0985 0.12988,0.10625 0.0941,0.0726 0.17758,0.10885 0.0981,0.0881 0.12855,0.10626 v 0.003 l 0.21469,0.18141 0.17096,0.10884 0.11,0.0933 0.11264,0.10884 0.11,0.0778 0.16168,0.10885 0.10867,0.0881 0.1312,0.10884 0.11,0.0752 0.19746,0.10884 0.10469,0.13477 0.13385,0.0985 v 0.008 l 0.11,0.0907 0.13915,0.10885 0.10867,0.10366 0.15373,0.10626 0.11,0.0959 0.17758,0.10885 0.10337,0.0907 0.18951,0.10885 0.10867,0.0881 0.16036,0.10626 0.10337,0.0544 h 0.007 l 0.16566,0.0855 0.17228,0.10885 0.10337,0.0855 0.1365,0.10884 0.18951,0.13995 0.19747,0.10366 0.10999,0.0959 0.14578,0.10366 0.10337,0.0829 h 0.007 l 0.10867,0.10884 0.10867,0.0752 0.17361,0.10625 0.10734,0.10626 0.17891,0.10884 0.10602,0.10107 0.13385,0.10626 0.10867,0.07 0.14578,0.10884 0.10867,0.0855 0.17493,0.10884 0.0981,0.07 h 0.004 l 0.16963,0.10885 0.11,0.12958 0.13252,0.10884 0.10205,0.10885 0.14445,0.10884 0.10867,0.0726 0.16035,0.10884 0.1047,0.0648 0.20541,0.10366 0.10735,0.07 0.20674,0.10884 0.10867,0.0985 h 10e-4 l 0.21204,0.10885 0.11,0.07 0.14843,0.10366 0.0994,0.0855 0.13385,0.10366 0.10735,0.0985 0.11662,0.10107 v 0.005 l 0.10867,0.0855 0.19481,0.10884 0.0994,0.0622 h 0.005 l 0.14843,0.10885 0.21866,0.19436 0.13253,0.10885 0.10734,0.11144 0.21867,0.10884 0.20542,0.16586 0.1577,0.10885 0.18553,0.13735 0.18024,0.10884 0.10602,0.0881 0.20144,0.10884 0.10867,0.07 0.13782,0.10885 0.18289,0.13217 0.13252,0.10625 0.11,0.0855 0.14578,0.10885 0.10734,0.0881 0.22,0.10885 0.0994,0.0959 h 0.003 l 0.21469,0.10884 0.10337,0.10366 0.20276,0.10885 0.11,0.10366 0.17891,0.10885 0.10734,0.0752 0.16699,0.10885 0.10867,0.0803 0.13385,0.10884 0.10734,0.0829 0.13915,0.10885 0.1047,0.0492 0.14445,0.10625 0.10735,0.10625 h 0.003 l 0.1524,0.10885 0.11,0.0777 0.1683,0.10625 0.11,0.0596 0.16698,0.10884 0.0994,0.0803 0.12987,0.10884 0.18023,0.11144 0.18156,0.10626 v 0.003 l 0.13783,0.0985 0.18421,0.10884 0.11,0.0881 0.12324,0.10626 0.11,0.0674 0.17096,0.10366 0.10469,0.0726 0.13783,0.10884 0.10867,0.057 0.19216,0.10884 0.1047,0.0881 0.14445,0.10626 0.10999,0.0544 0.15108,0.10885 0.10337,0.0726 0.18289,0.10884 0.10867,0.0726 0.20144,0.10884 0.10999,0.0855 0.15108,0.10885 0.11,0.0803 0.13915,0.10884 0.0994,0.0803 0.18819,0.10885 0.10337,0.0726 0.17228,0.10885 0.10867,0.0596 0.22529,0.10885 0.1047,0.057 h 0.003 l 0.19614,0.10885 0.10999,0.0803 0.17229,0.10884 0.10071,0.0726 0.16036,0.10884 0.10204,0.0518 0.15903,0.10885 0.0968,0.0492 h 0.007 l 0.20409,0.10884 0.0968,0.0674 h 0.005 l 0.18288,0.10626 0.10867,0.0959 0.20807,0.10885 0.10999,0.0829 0.13518,0.10625 0.10337,0.10626 0.17493,0.10884 0.11,0.0829 0.14047,0.10626 0.10868,0.0726 0.163,0.10885 0.11,0.0933 0.1524,0.10885 0.0981,0.0492 0.16036,0.10884 0.10602,0.0752 0.18951,0.10884 0.10734,0.0907 0.43866,0.2747 0.20939,0.10885 0.10867,0.0674 0.18156,0.10884 0.10735,0.10107 0.23059,0.10626 0.10337,0.0596 0.20939,0.10884 0.10734,0.0752 0.17891,0.10626 0.10602,0.0907 0.17361,0.10885 0.15771,0.0803 0.1259,0.10884 0.10734,0.0803 h 0.003 l 0.1259,0.0726 0.18819,0.10626 0.10999,0.0881 0.13518,0.10625 0.10999,0.0674 0.20807,0.10884 0.1365,0.0855 0.22529,0.10885 0.10602,0.0829 0.20674,0.10625 0.10867,0.0726 0.16566,0.10885 0.10999,0.0777 0.18687,0.10625 0.10734,0.0778 0.22662,0.10884 0.10734,0.0648 0.18819,0.10885 0.0994,0.0622 0.20542,0.10625 0.10999,0.0596 0.19614,0.10884 0.10735,0.07 0.20143,0.10885 0.10868,0.0752 0.15638,0.10885 0.10999,0.0674 0.21867,0.10366 0.10469,0.0933 h 0.005 l 0.17096,0.10884 0.0901,0.0778 h 0.0119 l 0.25709,0.10884 0.11,0.07 0.25445,0.10884 0.10999,0.0985 0.18952,0.10885 0.10999,0.0596 0.20276,0.10885 0.10603,0.07 0.18421,0.10885 0.10734,0.0596 0.18421,0.10885 0.0954,0.0518 0.21071,0.10884 0.11,0.0752 0.17361,0.10884 0.10602,0.0752 0.21204,0.10885 0.10867,0.0829 0.19216,0.10626 0.10602,0.0726 0.24252,0.10885 0.10337,0.0648 h 0.004 l 0.34854,0.16845 0.10867,0.0726 0.21734,0.10885 0.10867,0.0622 0.15373,0.10884 0.11,0.0622 0.22131,0.10884 0.10867,0.0466 0.20409,0.10885 0.1047,0.0622 0.20674,0.10885 0.10867,0.0596 0.21469,0.10885 0.10734,0.0544 0.23855,0.10885 0.10337,0.0492 0.19084,0.10884 0.10867,0.0596 0.22264,0.10885 0.0861,0.0544 0.21602,0.10884 0.0994,0.07 0.22397,0.10885 0.10072,0.0492 0.22529,0.10884 0.10469,0.0622 0.22,0.10626 v 0.003 l 0.15505,0.0648 0.13253,0.10884 0.10204,0.0337 0.2624,0.10885 0.11,0.0518 0.16698,0.10884 0.10602,0.0674 0.24517,0.10885 0.10867,0.0466 0.16301,0.10625 0.10999,0.057 0.21602,0.10884 0.10469,0.0829 0.18289,0.10626 0.10469,0.0648 0.26108,0.10885 0.10734,0.0492 0.2465,0.10885 0.0954,0.0674 h 0.0119 l 0.26108,0.10884 0.10072,0.0803 h 0.005 l 0.20011,0.10884 0.11,0.0648 0.19216,0.10626 0.11,0.0674 0.18951,0.10884 0.10867,0.0674 0.24119,0.10367 0.1047,0.0829 0.16168,0.10884 0.19614,0.14254 0.18553,0.10884 0.0954,0.0441 h 0.0132 l 0.18686,0.10884 0.1047,0.0881 h 0.003 l 0.21866,0.10884 0.10868,0.0881 0.22661,0.10625 0.10867,0.0596 0.24385,0.10884 0.11,0.0389 0.21469,0.10626 0.10734,0.07 0.20807,0.10885 0.10867,0.0752 0.19481,0.10625 0.11,0.07 0.1577,0.10884 0.15373,0.07 0.22794,0.10626 0.10072,0.0363 0.21204,0.10885 0.11,0.0622 0.24517,0.10626 0.11,0.0492 0.20409,0.10625 0.0994,0.0778 0.22529,0.10884 0.10602,0.0415 0.17228,0.10625 0.1047,0.0648 h 0.004 l 0.27432,0.10885 0.0888,0.0674 h 0.005 l 0.19878,0.10884 0.10735,0.057 0.21469,0.10884 0.11,0.0622 0.25709,0.10884 0.0954,0.0389 0.28096,0.10884 0.0981,0.0622 0.25313,0.10885 0.10469,0.0596 h 0.005 l 0.19084,0.10885 0.91045,0.46389 0.29023,0.10884 0.10999,0.0596 0.19879,0.10625 0.10602,0.0492 0.29421,0.10885 0.0901,0.0622 0.22264,0.10626 0.10469,0.0518 0.28228,0.10366 0.10602,0.0544 0.18686,0.10885 0.10735,0.0622 0.21601,0.10884 0.10072,0.0622 0.19879,0.10884 0.11,0.0803 0.24782,0.10885 0.0967,0.0518 0.26373,0.10884 0.0967,0.0674 h 0.0106 l 0.18951,0.10884 0.1047,0.057 0.30348,0.10884 0.0901,0.0389 h 0.0186 l 0.30348,0.10885 0.10602,0.0596 0.2465,0.10884 0.10735,0.0518 0.17626,0.10626 0.0941,0.0648 h 0.007 l 0.23192,0.10885 0.11,0.0596 0.26372,0.10884 0.10735,0.0518 0.19746,0.10885 0.1153,0.057 0.26505,0.10885 0.10337,0.0544 0.22927,0.10885 0.0888,0.0648 h 0.0132 l 0.23457,0.10884 0.0888,0.0285 0.27831,0.10884 0.0994,0.0752 h 0.0106 l 0.15108,0.0752 0.25048,0.10885 0.10601,0.0622 h 0.004 l 0.29421,0.10625 0.10999,0.0441 0.29951,0.10625 0.10867,0.057 0.35782,0.10885 0.10999,0.0622 0.2253,0.10884 0.10602,0.0415 0.22396,0.10884 0.11,0.0518 0.26505,0.10884 0.10735,0.0441 0.20806,0.10884 0.0901,0.0441 h 0.0146 l 0.17758,0.10884 0.11,0.0544 0.21336,0.10884 0.10735,0.0596 0.27432,0.10884 0.10735,0.0466 0.25445,0.10885 0.10999,0.0648 0.22927,0.10884 0.10867,0.0233 0.22662,0.10884 0.10204,0.0492 0.24518,0.10885 0.10469,0.0674 0.29951,0.10884 0.10867,0.0337 0.23722,0.10885 0.10734,0.0622 h 0.001 l 0.22927,0.10885 0.10867,0.0596 0.21469,0.10884 0.11,0.0285 0.19083,0.10884 0.11,0.0415 0.26637,0.10366 v 0.005 l 0.10072,0.0441 h 0.004 l 0.22529,0.10885 0.10337,0.0648 0.2836,0.10885 0.11,0.0518 0.36577,0.10885 0.10867,0.044 0.29023,0.10885 0.0795,0.0518 h 0.0225 l 0.27432,0.10885 0.0994,0.0622 h 0.007 l 0.32071,0.10885 0.0968,0.0337 0.20144,0.10884 0.10999,0.057 0.23855,0.10884 0.10867,0.0466 0.23722,0.10885 0.10204,0.0389 0.31011,0.10885 0.1047,0.0492 0.25577,0.10884 0.1524,0.0596 0.26108,0.10366 v 0.005 l 0.15903,0.0674 0.41878,0.10885 0.0981,0.0415 h 0.0119 l 0.42939,0.1555 0.33661,0.10884 0.17228,0.0985 0.23855,0.10885 0.32203,0.16067 0.29951,0.10626 0.0941,0.0389 0.27433,0.10885 0.10735,0.044 0.34589,0.10626 0.10734,0.057 0.31674,0.10885 0.0861,0.044 h 0.0106 l 0.31011,0.10885 0.10469,0.0596 0.27566,0.10885 0.10999,0.0544 0.26373,0.10885 0.10867,0.0492 0.27168,0.10884 0.10469,0.0363 0.31011,0.10885 0.10072,0.0363 h 0.009 l 0.12987,0.0311 0.30878,0.10885 0.11,0.0441 0.21734,0.10626 0.0967,0.0415 0.28758,0.10885 0.10735,0.0415 0.24915,0.10626 0.10999,0.044 0.32204,0.10626 0.10602,0.0518 0.34722,0.10884 0.10336,0.0337 0.29554,0.10885 0.10999,0.0777 0.32469,0.10885 0.10072,0.0285 0.26505,0.10884 0.0808,0.0466 0.36047,0.10625 v 0.003 l 0.15505,0.0648 0.31011,0.10885 0.10602,0.0363 h 0.003 l 0.24782,0.10366 0.10868,0.0492 0.2624,0.10885 0.10866,0.057 h 0.001 l 0.15108,0.0544 0.28228,0.10884 0.10734,0.0363 0.38963,0.10885 0.0941,0.0544 0.35384,0.10885 0.10602,0.057 0.33794,0.10626 0.11,0.0415 0.28758,0.10885 0.10469,0.0311 0.32601,0.10885 0.10337,0.0466 0.32734,0.10884 0.10867,0.0648 0.26108,0.10885 0.10337,0.044 h 0.005 l 0.29155,0.10626 0.10337,0.057 0.40686,0.10626 0.10866,0.0466 0.34457,0.10885 0.10602,0.0518 0.20409,0.10885 0.10602,0.0518 0.24517,0.10884 0.11,0.07 0.24649,0.10885 0.10205,0.0389 0.25312,0.10885 0.0928,0.0466 h 0.0172 l 0.30348,0.10366 v 0.003 l 0.1259,0.0829 0.28095,0.10885 0.1047,0.044 h 0.005 l 0.27035,0.10885 0.10602,0.0441 0.23589,0.10885 0.0954,0.0311 0.38433,0.10884 0.10469,0.0466 h 0.004 l 0.33263,0.10885 0.11,0.0389 0.273,0.10885 0.0875,0.057 h 0.0132 l 0.28096,0.10885 0.10999,0.0337 0.29818,0.10884 0.10337,0.0492 h 0.004 l 0.29818,0.10885 0.0941,0.0389 h 0.0159 l 0.38432,0.10885 0.10867,0.057 0.36047,0.10885 0.0981,0.0259 h 0.007 l 0.30614,0.10885 0.0981,0.0466 h 0.005 l 0.24782,0.10885 0.0981,0.0441 0.34854,0.10884 0.0901,0.0492 0.33131,0.10885 0.10602,0.0441 0.27963,0.10626 0.1577,0.0648 0.29023,0.10884 0.14976,0.0518 0.34721,0.10885 0.1047,0.0492 h 0.004 l 0.34854,0.10884 0.1047,0.0389 h 0.004 l 0.38168,0.10884 0.10867,0.0311 h 0.001 l 0.15771,0.0674 0.50094,0.10625 0.0968,0.0389 0.42938,0.10625 0.10999,0.0544 0.34987,0.10366 0.11,0.0285 0.33263,0.10885 0.10205,0.0441 0.45589,0.10884 0.10469,0.0337 h 0.005 l 0.35914,0.10885 0.0954,0.0181 0.36975,0.10884 0.0928,0.0518 0.29288,0.10885 0.10999,0.0389 0.34324,0.10885 0.0941,0.0337 h 0.0106 l 0.40685,0.10884 0.10735,0.0466 0.52745,0.10885 0.10867,0.0311 0.40817,0.10884 0.10602,0.0233 h 0.003 l 0.33529,0.10884 0.10867,0.0337 0.38963,0.10885 0.10072,0.044 0.46781,0.10885 0.0967,0.0466 h 0.0119 l 0.29951,0.10884 0.0941,0.0363 h 0.0132 l 0.40421,0.10885 0.13517,0.0492 0.5301,0.10885 0.0888,0.0337 h 0.0106 l 0.43998,0.10884 0.11,0.0233 0.40817,0.10367 0.10205,0.0337 0.42805,0.10884 0.10867,0.0466 0.36445,0.10885 0.10602,0.0415 h 0.004 l 0.37769,0.10885 0.10867,0.0415 0.40685,0.10626 v 0.003 l 0.36975,0.11143 0.4095,0.10885 0.10337,0.0363 0.44529,0.10885 0.10999,0.0415 0.40155,0.10885 0.0954,0.0492 h 0.008 l 0.37769,0.10884 0.0928,0.0259 0.34854,0.10884 0.0954,0.0363 h 0.0119 l 0.37769,0.10626 0.10867,0.0311 0.39758,0.10884 0.10867,0.0441 0.29023,0.10884 0.14578,0.0466 0.44926,0.10885 0.10999,0.0415 0.43204,0.10885 0.10999,0.0389 0.57251,0.10885 0.1047,0.0181 0.38432,0.10884 0.13915,0.0363 0.35119,0.10884 0.1047,0.0389 0.35251,0.10885 0.10735,0.0441 0.33926,0.10884 0.10735,0.0492 0.32999,0.10885 0.10999,0.0337 0.40685,0.10625 v 0.003 l 0.20542,0.0466 0.43203,0.10885 0.10735,0.0311 0.41745,0.10885 0.10072,0.0259 h 0.008 l 0.44926,0.10884 0.11,0.0285 0.27035,0.10884 0.10867,0.0311 0.37107,0.10885 0.11,0.0259 0.43733,0.10885 0.10072,0.0441 0.38432,0.10884 0.15903,0.07 0.46517,0.10885 0.0928,0.0311 0.47709,0.10884 0.14313,0.0441 0.35119,0.10884 0.11,0.0389 0.42143,0.10884 0.0994,0.0259 0.42938,0.10884 0.0769,0.0181 0.50492,0.10885 0.10204,0.0311 h 0.004 l 0.47974,0.10884 0.14048,0.0492 0.4307,0.10885 0.11,0.0389 0.53143,0.10885 0.0901,0.0311 0.41083,0.10625 0.0941,0.0285 h 0.0159 l 0.1418,0.044 0.51287,0.10885 0.1418,0.0337 0.5142,0.10885 0.11,0.0285 0.47576,0.10885 0.1047,0.0259 0.40022,0.10626 0.10072,0.0389 h 0.009 l 0.14445,0.0389 0.5036,0.10885 0.10735,0.0285 0.46383,0.10625 0.10205,0.0389 0.36444,0.10884 0.11,0.0389 0.49697,0.10885 0.0967,0.0207 0.45059,0.10885 0.10204,0.0311 0.62817,0.10625 0.0981,0.0181 0.5195,0.10885 0.0716,0.0207 h 0.0146 l 0.55263,0.10884 0.0928,0.0259 0.55793,0.10885 0.0835,0.0337 h 0.0265 l 0.43336,0.10885 0.10602,0.0207 0.42806,0.10885 0.10867,0.0363 0.45058,0.10885 0.10867,0.0363 h 10e-4 l 0.56456,0.10884 0.10999,0.0337 0.45589,0.10626 0.10867,0.0518 h 10e-4 l 0.12589,0.0207 0.47577,0.10885 0.17626,0.0285 0.60034,0.10885 0.0702,0.0104 0.53275,0.10885 0.10602,0.0181 0.67588,0.10885 0.0994,0.0285 h 0.0106 l 0.58046,0.10885 0.0968,0.0285 h 0.005 l 0.47709,0.10884 0.10999,0.0337 0.47179,0.10885 0.0941,0.0233 0.64009,0.10885 0.11,0.0207 0.54468,0.10884 0.14047,0.0389 0.47975,0.10884 0.10734,0.0363 0.49962,0.10885 0.11,0.0311 0.63877,0.10884 0.10337,0.0363 h 0.003 l 0.53142,0.10884 0.11,0.0207 0.71033,0.10885 0.10602,0.0311 0.53276,0.10884 0.0835,0.0311 h 0.0146 l 0.6348,0.10885 0.0782,0.0156 h 0.0225 l 0.82298,0.10884 0.10337,0.0363 h 0.005 l 0.83093,0.10885 0.10072,0.0207 h 0.007 l 0.72359,0.10885 0.10867,0.013 0.58974,0.10884 0.0941,0.0259 0.76069,0.10884 0.0914,0.0181 h 0.009 l 0.66395,0.10885 0.10735,0.0259 h 0.003 l 0.74214,0.10885 0.0835,0.0181 h 0.0239 l 0.60033,0.10885 0.11133,0.008 1.01647,0.10885 0.0941,0.0156 h 0.0159 l 1.0443,0.10884 0.1312,0.0233 0.76202,0.10885 0.10602,0.0285 0.80708,0.10884 0.0676,0.0104 h 0.0331 l 0.83756,0.10884 0.0875,0.0207 h 0.0199 l 0.84286,0.10884 0.13253,0.0181 1.04164,0.10885 0.11663,0.0181 1.23513,0.10884 0.0981,0.013 h 0.0106 l 0.92768,0.10626 0.10072,0.0129 L 324,316.8 v 0" /></g></g><g
       id="g116"><g
         clip-path="url(#clipPath122)"
         id="g118"><path
           id="path124"
           style="fill:none;stroke:#ff0000;stroke-width:1.5;stroke-linecap:butt;stroke-linejoin:round;stroke-miterlimit:10;stroke-dasharray:5.55, 2.4;stroke-dashoffset:0;stroke-opacity:1"
           d="M 45,45 324,316.8" /></g></g><g
       id="g126"><path
         id="path128"
         style="fill:none;stroke:#000000;stroke-width:0.80000001;stroke-linecap:square;stroke-linejoin:miter;stroke-miterlimit:10;stroke-dasharray:none;stroke-opacity:1"
         d="M 45,45 V 316.8" /><path
         id="path130"
         style="fill:none;stroke:#000000;stroke-width:0.80000001;stroke-linecap:square;stroke-linejoin:miter;stroke-miterlimit:10;stroke-dasharray:none;stroke-opacity:1"
         d="M 324,45 V 316.8" /><path
         id="path132"
         style="fill:none;stroke:#000000;stroke-width:0.80000001;stroke-linecap:square;stroke-linejoin:miter;stroke-miterlimit:10;stroke-dasharray:none;stroke-opacity:1"
         d="M 45,45 H 324" /><path
         id="path134"
         style="fill:none;stroke:#000000;stroke-width:0.80000001;stroke-linecap:square;stroke-linejoin:miter;stroke-miterlimit:10;stroke-dasharray:none;stroke-opacity:1"
         d="M 45,316.8 H 324" /><path
         id="path136"
         style="fill:#ffffff;fill-opacity:0.8;fill-rule:nonzero;stroke:#cccccc;stroke-width:1;stroke-linecap:butt;stroke-linejoin:miter;stroke-miterlimit:10;stroke-dasharray:none;stroke-opacity:0.8"
         d="M 198.1875,50 H 317 c 1.33333,0 2,0.666667 2,2 v 28.34375 c 0,1.333333 -0.66667,2 -2,2 H 198.1875 c -1.33333,0 -2,-0.666667 -2,-2 V 52 c 0,-1.333333 0.66667,-2 2,-2 z" /><path
         id="path138"
         style="fill:none;stroke:#1f77b4;stroke-width:1.5;stroke-linecap:square;stroke-linejoin:round;stroke-miterlimit:10;stroke-dasharray:none;stroke-opacity:1"
         d="m 200.1875,74.25 h 20" /><text
         id="text142"
         style="font-variant:normal;font-weight:normal;font-size:10px;font-family:'DejaVu Sans';-inkscape-font-specification:DejaVuSans;writing-mode:lr-tb;fill:#000000;fill-opacity:1;fill-rule:nonzero;stroke:none"
         transform="matrix(1,0,0,-1,228.1875,70.75)"><tspan
           id="tspan140"
           y="0"
           x="0 6.1100001 10.22 16.35 19.129999 25.469999 28.65 35.490002 42.810001 49.790001 52.970001 61.349998 64.529999 70.889999 74.07 80.43">Train AUC = 0.74</tspan></text>
<path
         id="path144"
         style="fill:none;stroke:#ff7f0e;stroke-width:1.5;stroke-linecap:square;stroke-linejoin:round;stroke-miterlimit:10;stroke-dasharray:none;stroke-opacity:1"
         d="m 200.1875,59.578125 h 20" /><text
         id="text148"
         style="font-variant:normal;font-weight:normal;font-size:10px;font-family:'DejaVu Sans';-inkscape-font-specification:DejaVuSans;writing-mode:lr-tb;fill:#000000;fill-opacity:1;fill-rule:nonzero;stroke:none"
         transform="matrix(1,0,0,-1,228.1875,56.078125)"><tspan
           id="tspan146"
           y="0"
           x="0 6.1100001 12.26 17.469999 21.389999 24.57 31.41 38.73 45.709999 48.889999 57.27 60.450001 66.809998 69.989998 76.349998">Test AUC = 0.75</tspan></text>
</g></g></svg>